HIERARCHY
ROOT Hips
{
	OFFSET 52.339500 -7.203064 84.300797
	CHANNELS 6 Xposition Yposition Zposition Xrotation Yrotation Zrotation
	JOINT spine
	{
		OFFSET 0.000000 -0.342408 5.954376
		CHANNELS 3 Xrotation Yrotation Zrotation
		JOINT spine1
		{
			OFFSET 0.000000 -0.000001 8.856018
			CHANNELS 3 Xrotation Yrotation Zrotation
			JOINT spine2
			{
				OFFSET 0.000000 -0.000001 8.485672
				CHANNELS 3 Xrotation Yrotation Zrotation
				JOINT Neck
				{
					OFFSET 0.000000 -1.038703 21.786301
					CHANNELS 3 Xrotation Yrotation Zrotation
					JOINT Head
					{
						OFFSET 0.000000 -0.000001 6.582199
						CHANNELS 3 Xrotation Yrotation Zrotation
						End Site
						{
							OFFSET 0.000000 5.254357 15.932602
						}
					}
				}
				JOINT RightShoulder
				{
					OFFSET -3.573071 0.497524 9.163864
					CHANNELS 3 Xrotation Yrotation Zrotation
					JOINT RightArm
					{
						OFFSET 0.000000 -0.000002 12.019196
						CHANNELS 3 Xrotation Yrotation Zrotation
						JOINT RightArmRoll
						{
							OFFSET 0.000000 -0.000001 6.067551
							CHANNELS 3 Xrotation Yrotation Zrotation
							JOINT RightForeArm
							{
								OFFSET 0.000000 -0.000003 17.672607
								CHANNELS 3 Xrotation Yrotation Zrotation
								JOINT RightForeArmRoll
								{
									OFFSET 0.000000 -0.000001 6.808731
									CHANNELS 3 Xrotation Yrotation Zrotation
									JOINT RightHand
									{
										OFFSET 0.000000 -0.000002 13.663605
										CHANNELS 3 Xrotation Yrotation Zrotation
										End Site
										{
											OFFSET 0.000000 0.000000 0.100006
										}
									}
								}
							}
						}
					}
				}
				JOINT LeftShoulder
				{
					OFFSET 3.573071 0.497524 9.163864
					CHANNELS 3 Xrotation Yrotation Zrotation
					JOINT LeftArm
					{
						OFFSET 0.000000 -0.000002 12.019196
						CHANNELS 3 Xrotation Yrotation Zrotation
						JOINT LeftArmRoll
						{
							OFFSET 0.000000 -0.000001 6.067551
							CHANNELS 3 Xrotation Yrotation Zrotation
							JOINT LeftForeArm
							{
								OFFSET 0.000000 -0.000003 17.672607
								CHANNELS 3 Xrotation Yrotation Zrotation
								JOINT LeftForeArmRoll
								{
									OFFSET 0.000000 -0.000001 6.808716
									CHANNELS 3 Xrotation Yrotation Zrotation
									JOINT LeftHand
									{
										OFFSET 0.000000 -0.000002 13.663605
										CHANNELS 3 Xrotation Yrotation Zrotation
										End Site
										{
											OFFSET 0.000000 0.000000 0.100006
										}
									}
								}
							}
						}
					}
				}
			}
		}
	}
	JOINT RightUpLeg
	{
		OFFSET -5.277740 0.811859 -0.967796
		CHANNELS 3 Xrotation Yrotation Zrotation
		JOINT RightUpLegRoll
		{
			OFFSET 0.000000 -0.000003 16.021400
			CHANNELS 3 Xrotation Yrotation Zrotation
			JOINT RightLeg
			{
				OFFSET 0.000000 0.000003 -19.840103
				CHANNELS 3 Xrotation Yrotation Zrotation
				JOINT RightLegRoll
				{
					OFFSET 0.000000 -0.000003 19.904999
					CHANNELS 3 Xrotation Yrotation Zrotation
					JOINT RightFoot
					{
						OFFSET 0.000000 -0.000003 16.567497
						CHANNELS 3 Xrotation Yrotation Zrotation
						JOINT RightToeBase
						{
							OFFSET 0.000000 -0.000002 13.849602
							CHANNELS 3 Xrotation Yrotation Zrotation
							End Site
							{
								OFFSET 0.005871 0.773116 6.707275
							}
						}
					}
				}
			}
		}
	}
	JOINT LeftUpLeg
	{
		OFFSET 5.277740 0.811859 -0.967796
		CHANNELS 3 Xrotation Yrotation Zrotation
		JOINT LeftUpLegRoll
		{
			OFFSET 0.000000 -0.000003 16.021500
			CHANNELS 3 Xrotation Yrotation Zrotation
			JOINT LeftLeg
			{
				OFFSET 0.000000 -0.000003 19.840004
				CHANNELS 3 Xrotation Yrotation Zrotation
				JOINT LeftLegRoll
				{
					OFFSET 0.000000 -0.000003 20.089005
					CHANNELS 3 Xrotation Yrotation Zrotation
					JOINT LeftFoot
					{
						OFFSET 0.000000 -0.000002 16.383499
						CHANNELS 3 Xrotation Yrotation Zrotation
						JOINT LeftToeBase
						{
							OFFSET 0.000000 -0.000002 13.849594
							CHANNELS 3 Xrotation Yrotation Zrotation
							End Site
							{
								OFFSET -0.026310 0.773116 6.707275
							}
						}
					}
				}
			}
		}
	}
}
MOTION
Frames: 13
Frame Time: 0.041667
51.968700 -5.882584 84.391296 -5.380149 3.635755 -0.906074 -1.223058 -0.797503 0.016419 1.566282 -1.601342 0.033310 3.211624 -1.600803 0.046069 18.919448 8.578304 0.071947 9.806246 -15.915220 2.239544 -15.686149 4.724167 -16.295962 -508.208859 -158.420432 -461.274859 0.000001 -0.000003 -0.000000 57.859174 2.951665 -4.093490 0.000005 -0.000007 -2.999998 -5.000161 -7.999915 -0.000004 -14.361041 14.063210 15.137402 -511.665098 204.100013 454.085401 0.000003 0.000001 0.000008 16.112707 -3.668523 2.630442 -0.000003 -0.000014 3.000000 -5.000141 7.999926 -0.000019 0.562759 -182.526902 1.721838 -179.999991 0.000005 -1.085995 173.796800 -3.211133 -0.400835 0.000002 -0.000000 0.056734 68.173334 6.921764 2.113258 25.456955 -7.355616 -0.000001 -1.851380 173.910154 -2.831802 -0.000004 -0.000004 -1.086600 -14.423082 2.252254 0.710969 -0.000006 -0.000006 -0.275655 71.708571 -6.840488 -2.093444 25.456952 7.355613 0.000000 
51.958500 -5.890084 84.398598 -5.379629 3.627295 -0.915463 -1.221138 -0.796177 0.016448 1.570872 -1.598819 0.033671 3.216212 -1.598270 0.045989 18.947126 8.600403 0.066974 9.770270 -15.900363 2.227428 -15.714477 4.857122 -16.343089 -508.268636 -158.505796 -461.231856 -0.000001 -0.000002 0.000001 57.936690 2.949875 -4.095141 0.000001 -0.000006 -3.000000 -5.000162 -7.999912 -0.000005 -14.444457 13.862668 15.262082 -511.702965 204.103551 454.055349 0.000004 0.000001 0.000007 16.220439 -3.668182 2.634562 -0.000001 -0.000015 3.000000 -5.000139 7.999926 -0.000018 0.563781 -182.519880 1.724912 -179.999991 0.000005 -1.085995 173.798726 -3.211145 -0.400728 0.000002 -0.000000 0.056708 68.174816 6.921770 2.113565 25.456959 -7.355618 0.000001 -1.842027 173.916110 -2.832836 -0.000004 -0.000004 -1.086630 -14.410120 2.257064 0.710852 -0.000007 -0.000006 -0.275561 71.703743 -6.840445 -2.094135 25.456952 7.355613 -0.000000 
51.958199 -5.885724 84.394402 -5.378278 3.619108 -0.924468 -1.219557 -0.794958 0.016482 1.574682 -1.596417 0.034015 3.220019 -1.595867 0.045928 18.975990 8.623789 0.063141 9.735177 -15.887336 2.216931 -15.742433 4.991334 -16.389664 -508.321912 -158.592061 -461.189782 -0.000002 -0.000004 0.000000 58.005272 2.948261 -4.096628 0.000002 -0.000007 -3.000002 -5.000161 -7.999918 -0.000007 -14.526170 13.664095 15.384204 -511.737771 204.103879 454.027208 0.000003 0.000000 0.000006 16.327371 -3.667842 2.638636 -0.000001 -0.000014 2.999999 -5.000137 7.999928 -0.000018 0.564032 -182.513897 1.727760 -179.999991 0.000005 -1.085995 173.800775 -3.212148 -0.400720 0.000002 0.000000 0.056681 68.176394 6.921781 2.113969 25.456957 -7.355618 0.000000 -1.833964 173.921082 -2.833700 -0.000004 -0.000004 -1.086660 -14.397757 2.261723 0.710728 -0.000006 -0.000006 -0.275468 71.699030 -6.840428 -2.094821 25.456952 7.355613 -0.000001 
51.946098 -5.893833 84.397102 -5.376043 3.611267 -0.932907 -1.218287 -0.793846 0.016523 1.577700 -1.594146 0.034349 3.223047 -1.593596 0.045901 19.004703 8.647950 0.060794 9.702367 -15.875778 2.208442 -15.770101 5.126310 -16.435826 -508.368248 -158.681359 -461.148473 0.000000 -0.000003 -0.000004 58.063841 2.946848 -4.097952 0.000006 -0.000005 -2.999998 -5.000160 -7.999915 -0.000005 -14.605540 13.467046 15.503010 -511.770228 204.100041 454.000926 0.000004 0.000001 0.000007 16.435708 -3.667498 2.642769 -0.000000 -0.000015 3.000000 -5.000138 7.999926 -0.000019 0.563468 -182.506903 1.730364 -179.999991 0.000005 -1.085995 173.803043 -3.212162 -0.399597 0.000002 -0.000000 0.056655 68.178183 6.921774 2.114256 25.456957 -7.355618 0.000001 -1.827375 173.925071 -2.834405 -0.000004 -0.000004 -1.086690 -14.385994 2.266201 0.710592 -0.000006 -0.000006 -0.275374 71.694624 -6.840404 -2.095486 25.456947 7.355613 0.000001 
51.948898 -5.892454 84.393608 -5.372896 3.603848 -0.940623 -1.217320 -0.792848 0.016576 1.579951 -1.591995 0.034680 3.225294 -1.591436 0.045920 19.032416 8.672301 0.060211 9.673253 -15.865327 2.202346 -15.797589 5.261536 -16.481998 -508.407207 -158.775616 -461.107437 -0.000002 -0.000000 -0.000002 58.111161 2.945660 -4.099071 0.000001 -0.000007 -3.000001 -5.000160 -7.999915 -0.000006 -14.682144 13.271244 15.617472 -511.800391 204.090560 453.976446 0.000004 0.000001 0.000006 16.547945 -3.667131 2.647087 -0.000002 -0.000015 3.000001 -5.000140 7.999925 -0.000018 0.562059 -182.501903 1.732624 -179.999991 0.000005 -1.085995 173.805502 -3.213169 -0.399566 0.000002 -0.000000 0.056628 68.180068 6.921778 2.114638 25.456960 -7.355617 0.000001 -1.822427 173.929046 -2.834985 -0.000005 -0.000004 -1.086709 -14.375026 2.270448 0.710440 -0.000007 -0.000006 -0.275280 71.690547 -6.840373 -2.096031 25.456952 7.355613 0.000000 
51.945202 -5.891384 84.395302 -5.368777 3.596963 -0.947410 -1.216636 -0.791963 0.016644 1.581419 -1.589955 0.035012 3.226762 -1.589387 0.046000 19.057691 8.696344 0.061749 9.649205 -15.855533 2.199007 -15.824963 5.396500 -16.528322 -508.438408 -158.877071 -461.066237 -0.000000 -0.000001 0.000000 58.146159 2.944710 -4.099987 0.000003 -0.000007 -2.999999 -5.000162 -7.999915 -0.000007 -14.755664 13.076419 15.726866 -511.829023 204.074578 453.953852 0.000002 0.000001 0.000007 16.666302 -3.666749 2.651662 -0.000001 -0.000015 2.999999 -5.000142 7.999926 -0.000018 0.559774 -182.496904 1.734513 -179.999991 0.000005 -1.085995 173.808234 -3.213186 -0.399414 0.000002 -0.000000 0.056602 68.182083 6.921787 2.115016 25.456957 -7.355617 0.000000 -1.819282 173.933048 -2.835463 -0.000005 -0.000004 -1.086740 -14.365061 2.274444 0.710277 -0.000007 -0.000006 -0.275182 71.686790 -6.840332 -2.096554 25.456953 7.355613 -0.000001 
51.938900 -5.890864 84.395096 -5.363717 3.590381 -0.954087 -1.216317 -0.791287 0.016721 1.581958 -1.588155 0.035325 3.227300 -1.587589 0.046118 19.084580 8.723942 0.065458 9.625789 -15.849471 2.198464 -15.852246 5.535352 -16.574731 -508.460483 -158.981997 -461.025584 -0.000000 -0.000002 0.000002 58.169900 2.943960 -4.100736 -0.000001 -0.000005 -2.999997 -5.000162 -7.999911 -0.000002 -14.827173 12.883185 15.833538 -511.853994 204.053964 453.933416 0.000002 0.000001 0.000007 16.785767 -3.666355 2.656271 -0.000002 -0.000015 3.000000 -5.000139 7.999927 -0.000018 0.556643 -182.491904 1.736157 -179.999991 0.000005 -1.084998 173.811184 -3.214195 -0.399355 0.000002 -0.000000 0.056576 68.184283 6.921775 2.115373 25.456962 -7.355616 0.000000 -1.817422 173.936013 -2.835864 -0.000005 -0.000004 -1.086760 -14.355591 2.278367 0.710091 -0.000007 -0.000006 -0.275086 71.683252 -6.840316 -2.096968 25.456948 7.355613 -0.000001 
51.933102 -5.896391 84.394394 -5.357798 3.583875 -0.961430 -1.216426 -0.790885 0.016797 1.581426 -1.586696 0.035593 3.226766 -1.586132 0.046238 19.117124 8.758580 0.071062 9.598120 -15.849807 2.200289 -15.879450 5.681694 -16.620799 -508.473050 -159.085378 -460.986297 -0.000001 -0.000002 0.000001 58.184517 2.943358 -4.101369 0.000001 -0.000005 -2.999997 -5.000159 -7.999913 -0.000006 -14.898357 12.692211 15.940593 -511.873883 204.031780 453.915521 0.000003 -0.000001 0.000006 16.899809 -3.665958 2.660569 -0.000002 -0.000015 2.999999 -5.000139 7.999927 -0.000019 0.552749 -182.486904 1.737715 -179.999991 0.000005 -1.084997 173.814312 -3.214214 -0.399180 0.000002 -0.000000 0.056551 68.186694 6.921746 2.115817 25.456959 -7.355614 -0.000001 -1.816237 173.939018 -2.836224 -0.000005 -0.000004 -1.086790 -14.346123 2.282368 0.709867 -0.000007 -0.000006 -0.274995 71.679707 -6.840271 -2.097479 25.456950 7.355613 -0.000000 
51.932301 -5.892884 84.394798 -5.351040 3.577442 -0.969248 -1.216955 -0.790718 0.016872 1.579905 -1.585538 0.035823 3.225245 -1.584977 0.046361 19.154557 8.799102 0.078272 9.566951 -15.855738 2.204206 -15.906452 5.834253 -16.666491 -508.476984 -159.187094 -460.948266 0.000000 -0.000002 0.000002 58.190411 2.942904 -4.101865 -0.000001 -0.000005 -2.999997 -5.000160 -7.999915 -0.000006 -14.969020 12.503511 16.047492 -511.888801 204.007970 453.900167 0.000004 0.000001 0.000007 17.008846 -3.665561 2.664585 -0.000004 -0.000015 2.999998 -5.000140 7.999925 -0.000019 0.548097 -182.482902 1.739165 -179.999991 0.000005 -1.084998 173.817646 -3.215225 -0.398103 0.000002 0.000000 0.056525 68.189221 6.921759 2.116259 25.456959 -7.355617 0.000000 -1.815791 173.943021 -2.836578 -0.000005 -0.000004 -1.086810 -14.336656 2.286408 0.709608 -0.000006 -0.000006 -0.274909 71.676162 -6.840257 -2.097792 25.456948 7.355613 -0.000001 
51.929501 -5.896134 84.395309 -5.343454 3.571104 -0.977366 -1.217866 -0.790747 0.016948 1.577443 -1.584630 0.036018 3.222782 -1.584062 0.046485 19.196320 8.844349 0.086789 9.533044 -15.866328 2.209902 -15.933336 5.991727 -16.711559 -508.473269 -159.287210 -460.911875 0.000002 -0.000003 0.000001 58.187871 2.942605 -4.102220 -0.000001 -0.000006 -2.999999 -5.000159 -7.999917 -0.000005 -15.038944 12.317094 16.154012 -511.899456 203.982643 453.886943 0.000003 0.000001 0.000007 17.113170 -3.665153 2.668356 -0.000003 -0.000015 3.000001 -5.000139 7.999927 -0.000019 0.542694 -182.477916 1.740507 -179.999991 0.000005 -1.084000 173.821115 -3.216251 -0.398016 0.000002 -0.000001 0.056500 68.191844 6.921743 2.116694 25.456957 -7.355614 0.000000 -1.816201 173.946012 -2.836809 -0.000004 -0.000004 -1.086839 -14.327288 2.290458 0.709328 -0.000006 -0.000006 -0.274829 71.672740 -6.840239 -2.098101 25.456953 7.355613 -0.000000 
51.927502 -5.895454 84.396698 -5.335083 3.564880 -0.985573 -1.219144 -0.790932 0.017022 1.574112 -1.583912 0.036183 3.219450 -1.583348 0.046612 19.241539 8.893196 0.096354 9.497134 -15.880460 2.217044 -15.959763 6.152846 -16.755801 -508.462450 -159.385593 -460.876904 -0.000000 -0.000002 -0.000001 58.177414 2.942458 -4.102444 0.000001 -0.000003 -2.999996 -5.000164 -7.999915 -0.000008 -15.108040 12.132962 16.259841 -511.906067 203.955773 453.875960 0.000003 0.000001 0.000007 17.213187 -3.664762 2.671904 -0.000001 -0.000014 3.000000 -5.000139 7.999927 -0.000018 0.536555 -182.473913 1.741730 -179.999991 0.000005 -1.084001 173.824749 -3.217265 -0.397920 0.000002 -0.000000 0.056474 68.194576 6.921737 2.117221 25.456957 -7.355616 0.000001 -1.817549 173.949017 -2.836921 -0.000005 -0.000004 -1.086860 -14.318121 2.294446 0.709026 -0.000006 -0.000006 -0.274753 71.669298 -6.840221 -2.098410 25.456950 7.355613 -0.000000 
51.922401 -5.902217 84.396790 -5.325929 3.558799 -0.993702 -1.220787 -0.791233 0.017096 1.569979 -1.583356 0.036322 3.215317 -1.582786 0.046740 19.289772 8.944455 0.106650 9.459979 -15.897417 2.225364 -15.985904 6.316316 -16.799164 -508.445402 -159.482240 -460.843300 0.000000 -0.000002 0.000003 58.159334 2.942476 -4.102520 0.000002 -0.000005 -2.999999 -5.000161 -7.999916 -0.000006 -15.176206 11.951310 16.364636 -511.908963 203.927360 453.866835 0.000004 0.000002 0.000009 17.309096 -3.664371 2.675252 -0.000002 -0.000015 3.000000 -5.000142 7.999925 -0.000020 0.529680 -182.468913 1.742813 -179.999991 0.000005 -1.083004 173.828492 -3.218279 -0.396806 0.000002 -0.000000 0.056449 68.197499 6.921674 2.117826 25.456955 -7.355616 0.000001 -1.819927 173.951039 -2.836855 -0.000005 -0.000004 -1.086890 -14.309257 2.298355 0.708717 -0.000006 -0.000006 -0.274681 71.665972 -6.840167 -2.098705 25.456953 7.355613 -0.000000 
51.918598 -5.901145 84.397003 -5.316016 3.552872 -1.001564 -1.222767 -0.791611 0.017168 1.565097 -1.582890 0.036439 3.210446 -1.582324 0.046869 19.340227 8.997010 0.117412 9.422342 -15.916069 2.234533 -16.011533 6.480845 -16.841442 -508.423108 -159.577015 -460.811389 0.000003 -0.000003 0.000004 58.134021 2.942658 -4.102440 -0.000001 -0.000005 -3.000000 -5.000160 -7.999915 -0.000006 -15.243232 11.772050 16.468243 -511.908909 203.897512 453.859568 0.000002 0.000001 0.000008 17.401396 -3.663973 2.678439 -0.000002 -0.000017 3.000000 -5.000138 7.999927 -0.000019 0.522086 -182.464911 1.743736 -179.999991 0.000005 -1.083004 173.832399 -3.219294 -0.396694 0.000002 -0.000000 0.056424 68.200436 6.921645 2.118335 25.456957 -7.355617 0.000001 -1.823407 173.954031 -2.836652 -0.000004 -0.000004 -1.086910 -14.300787 2.302114 0.708399 -0.000006 -0.000006 -0.274612 71.662837 -6.840110 -2.098987 25.456950 7.355613 -0.000000 
